<svg width="20" height="20" viewBox="0 0 20 20" fill="none" xmlns="http://www.w3.org/2000/svg">
<path d="M18.7165 5.00001C18.0749 5.29168 17.3832 5.48334 16.6665 5.57501C17.3999 5.13334 17.9665 4.43334 18.2332 3.59168C17.5415 4.00834 16.7749 4.30001 15.9665 4.46668C15.3082 3.75001 14.3832 3.33334 13.3332 3.33334C11.3749 3.33334 9.77487 4.93334 9.77487 6.90834C9.77487 7.19168 9.8082 7.46668 9.86654 7.72501C6.89987 7.57501 4.2582 6.15001 2.49987 3.99168C2.19154 4.51668 2.01654 5.13334 2.01654 5.78334C2.01654 7.02501 2.64154 8.12501 3.6082 8.75001C3.01654 8.75001 2.46654 8.58334 1.9832 8.33334V8.35834C1.9832 10.0917 3.21654 11.5417 4.84987 11.8667C4.32548 12.0102 3.77495 12.0302 3.24154 11.925C3.46788 12.6354 3.91115 13.257 4.50905 13.7025C5.10695 14.1479 5.82941 14.3948 6.57487 14.4083C5.31123 15.4087 3.74487 15.9494 2.1332 15.9417C1.84987 15.9417 1.56654 15.925 1.2832 15.8917C2.86654 16.9083 4.74987 17.5 6.76654 17.5C13.3332 17.5 16.9415 12.05 16.9415 7.32501C16.9415 7.16668 16.9415 7.01668 16.9332 6.85834C17.6332 6.35834 18.2332 5.72501 18.7165 5.00001Z" fill="#030535"/>
</svg>
