<svg width="20" height="20" viewBox="0 0 20 20" fill="none" xmlns="http://www.w3.org/2000/svg">
<path d="M12.0837 12.8417C12.1503 12.9167 12.1503 13.075 12.0837 13.1667C11.4753 13.75 10.342 13.8 10.0003 13.8C9.67533 13.8 8.54199 13.75 7.95033 13.1667C7.86699 13.075 7.86699 12.9167 7.95033 12.8417C8.04199 12.7583 8.18366 12.7583 8.26699 12.8417C8.65033 13.225 9.44199 13.3333 10.0003 13.3333C10.5753 13.3333 11.3837 13.225 11.7503 12.8417C11.842 12.7583 11.9837 12.7583 12.0837 12.8417ZM8.95866 10.8667C8.95866 10.3917 8.56699 9.99999 8.09199 9.99999C7.61699 9.99999 7.22533 10.3917 7.22533 10.8667C7.22533 11.3417 7.61699 11.7417 8.09199 11.7333C8.56699 11.7333 8.95866 11.3417 8.95866 10.8667ZM11.9087 9.99999C11.4337 9.99999 11.042 10.4167 11.042 10.875C11.042 11.3333 11.4337 11.7417 11.9087 11.7417C12.3837 11.7417 12.7753 11.3417 12.7753 10.875C12.7753 10.4167 12.3837 9.99999 11.9087 9.99999ZM18.3337 9.99999C18.3337 14.5833 14.5837 18.3333 10.0003 18.3333C5.41699 18.3333 1.66699 14.5833 1.66699 9.99999C1.66699 5.41666 5.41699 1.66666 10.0003 1.66666C14.5837 1.66666 18.3337 5.41666 18.3337 9.99999ZM15.5587 9.99999C15.5587 9.32499 15.0003 8.78332 14.3503 8.78332C14.017 8.78332 13.717 8.91666 13.5003 9.12499C12.667 8.52499 11.5253 8.14166 10.2503 8.09166L10.8087 5.48332L12.617 5.87499C12.6337 6.33332 13.017 6.69999 13.4837 6.69999C13.9587 6.69999 14.3503 6.30832 14.3503 5.83332C14.3503 5.35832 13.9587 4.96666 13.4837 4.96666C13.142 4.96666 12.842 5.16666 12.7087 5.45832L10.6837 5.02499C10.6253 4.99999 10.567 5.02499 10.5253 5.05832C10.4753 5.09166 10.4503 5.14166 10.442 5.19999L9.82533 8.09999C8.53366 8.14166 7.36699 8.52499 6.51699 9.13332C6.30033 8.92499 6.00033 8.79999 5.67533 8.79999C5.00033 8.79999 4.45866 9.34166 4.45866 9.99999C4.45866 10.5083 4.75866 10.925 5.17533 11.1167C5.15866 11.25 5.15033 11.35 5.15033 11.4833C5.15033 13.3333 7.32533 14.875 10.0003 14.875C12.692 14.875 14.8753 13.3583 14.8753 11.4833C14.8753 11.3667 14.867 11.25 14.842 11.1167C15.2587 10.925 15.5587 10.5 15.5587 9.99999Z" fill="#030535"/>
</svg>
