<svg width="20" height="20" viewBox="0 0 20 20" fill="none" xmlns="http://www.w3.org/2000/svg">
<g clip-path="url(#clip0_99_3033)">
<path d="M18.3337 20L13.9587 15.8333L14.4837 17.5H3.75033C3.19779 17.5 2.66789 17.2805 2.27719 16.8898C1.88649 16.4991 1.66699 15.9692 1.66699 15.4167V2.91668C1.66699 2.36414 1.88649 1.83424 2.27719 1.44354C2.66789 1.05284 3.19779 0.833344 3.75033 0.833344H16.2503C16.8029 0.833344 17.3328 1.05284 17.7235 1.44354C18.1142 1.83424 18.3337 2.36414 18.3337 2.91668V20ZM10.0003 5.66668C7.76699 5.66668 6.20033 6.62501 6.20033 6.62501C7.05866 5.85834 8.55866 5.41668 8.55866 5.41668L8.41699 5.27501C7.00866 5.30001 5.73366 6.27501 5.73366 6.27501C4.30033 9.26668 4.39199 11.85 4.39199 11.85C5.55866 13.3583 7.29199 13.25 7.29199 13.25L7.88366 12.5C6.84199 12.275 6.18366 11.35 6.18366 11.35C6.18366 11.35 7.75033 12.4167 10.0003 12.4167C12.2503 12.4167 13.817 11.35 13.817 11.35C13.817 11.35 13.1587 12.275 12.117 12.5L12.7087 13.25C12.7087 13.25 14.442 13.3583 15.6087 11.85C15.6087 11.85 15.7003 9.26668 14.267 6.27501C14.267 6.27501 12.992 5.30001 11.5837 5.27501L11.442 5.41668C11.442 5.41668 12.942 5.85834 13.8003 6.62501C13.8003 6.62501 12.2337 5.66668 10.0003 5.66668ZM8.27533 8.82501C8.81699 8.82501 9.25866 9.30001 9.25033 9.88334C9.25033 10.4583 8.81699 10.9417 8.27533 10.9417C7.74199 10.9417 7.30866 10.4583 7.30866 9.88334C7.30866 9.30001 7.73366 8.82501 8.27533 8.82501ZM11.7503 8.82501C12.292 8.82501 12.7253 9.30001 12.7253 9.88334C12.7253 10.4583 12.292 10.9417 11.7503 10.9417C11.217 10.9417 10.7837 10.4583 10.7837 9.88334C10.7837 9.30001 11.2087 8.82501 11.7503 8.82501Z" fill="#030535"/>
</g>
<defs>
<clipPath id="clip0_99_3033">
<rect width="20" height="20" fill="white"/>
</clipPath>
</defs>
</svg>
